<?xml version="1.0" encoding="UTF-8" standalone="no"?>
<!DOCTYPE svg PUBLIC "-//W3C//DTD SVG 1.1//EN" "http://www.w3.org/Graphics/SVG/1.1/DTD/svg11.dtd">
<svg width="100%" height="100%" viewBox="0 0 2252 255" version="1.1" xmlns="http://www.w3.org/2000/svg" xmlns:xlink="http://www.w3.org/1999/xlink" xml:space="preserve" xmlns:serif="http://www.serif.com/" style="fill-rule:evenodd;clip-rule:evenodd;stroke-linejoin:round;stroke-miterlimit:2;">
    <g transform="matrix(1,0,0,1,-7943.98,-510.074)">
        <g transform="matrix(2.00213,0,0,0.5,-13.2189,-1.36424e-12)">
            <g transform="matrix(3.0509,0,0,12.2166,3022.26,-1768.27)">
                <g transform="matrix(1,0,0,1,322.726,244.103)">
                    <path d="M0,25.667L-10.651,12.766L-0.069,0L3.779,0L-6.761,12.766L3.819,25.667L0,25.667Z" style="fill:rgb(231,145,53);fill-rule:nonzero;"/>
                </g>
                <g transform="matrix(1,0,0,1,670.003,243.919)">
                    <path d="M0,25.667L10.651,12.767L0.07,0L-3.779,0L6.761,12.767L-3.818,25.667L0,25.667Z" style="fill:rgb(231,145,53);fill-rule:nonzero;"/>
                </g>
                <g transform="matrix(1,0,0,1,341.301,256.631)">
                    <path d="M0,0.141L0,7.505L2.606,7.505L2.606,0.141C2.797,0.059 2.981,-0.034 3.151,-0.149C4.03,-0.743 4.608,-1.749 4.608,-2.889C4.608,-4.715 3.129,-6.194 1.304,-6.194C-0.522,-6.194 -2.002,-4.715 -2.002,-2.889C-2.002,-1.749 -1.424,-0.743 -0.545,-0.149C-0.375,-0.034 -0.19,0.059 0,0.141M14.091,12.858L-11.484,12.858L-11.484,-12.717L14.091,-12.717L14.091,12.858Z" style="fill:rgb(231,145,53);fill-rule:nonzero;"/>
                </g>
                <g transform="matrix(1,0,0,1,355.392,228.248)">
                    <path d="M0,12.787L-2.806,12.787C-2.806,7.284 -7.284,2.806 -12.788,2.806C-18.292,2.806 -22.769,7.284 -22.769,12.787L-25.575,12.787C-25.575,5.736 -19.839,0 -12.788,0C-5.737,0 0,5.736 0,12.787" style="fill:rgb(231,145,53);fill-rule:nonzero;"/>
                </g>
                <g transform="matrix(0.306032,0,0,0.306032,-1241.82,-244.974)">
                    <g transform="matrix(125,0,0,125,5225.21,1681.9)">
                        <rect x="0.072" y="-0.669" width="0.101" height="0.669" style="fill:rgb(231,145,53);fill-rule:nonzero;"/>
                    </g>
                    <g transform="matrix(125,0,0,125,5255.59,1681.9)">
                        <path d="M0.072,-0L0.072,-0.669L0.306,-0.669C0.397,-0.669 0.465,-0.631 0.51,-0.556C0.526,-0.528 0.536,-0.502 0.54,-0.477C0.544,-0.452 0.546,-0.404 0.546,-0.334C0.546,-0.259 0.543,-0.208 0.538,-0.183C0.533,-0.158 0.523,-0.133 0.508,-0.11C0.488,-0.079 0.461,-0.053 0.426,-0.032C0.391,-0.011 0.349,-0 0.299,-0L0.072,-0ZM0.173,-0.573L0.173,-0.095L0.295,-0.095C0.35,-0.095 0.392,-0.114 0.419,-0.153C0.43,-0.17 0.436,-0.189 0.44,-0.208C0.443,-0.227 0.444,-0.268 0.444,-0.33C0.444,-0.391 0.442,-0.432 0.439,-0.455C0.436,-0.478 0.427,-0.498 0.414,-0.517C0.387,-0.554 0.347,-0.573 0.295,-0.573L0.173,-0.573Z" style="fill:rgb(231,145,53);fill-rule:nonzero;"/>
                    </g>
                    <g transform="matrix(125,0,0,125,5329.71,1681.9)">
                        <path d="M0.072,-0L0.072,-0.669L0.5,-0.669L0.5,-0.573L0.173,-0.573L0.173,-0.382L0.451,-0.382L0.451,-0.292L0.173,-0.292L0.173,-0.095L0.5,-0.095L0.5,-0L0.072,-0Z" style="fill:rgb(231,145,53);fill-rule:nonzero;"/>
                    </g>
                    <g transform="matrix(125,0,0,125,5395.09,1681.9)">
                        <path d="M0.001,-0L0.246,-0.67L0.329,-0.67L0.573,-0L0.467,-0L0.415,-0.152L0.161,-0.152L0.108,-0L0.001,-0ZM0.191,-0.241L0.385,-0.241C0.371,-0.282 0.36,-0.315 0.352,-0.338C0.344,-0.361 0.337,-0.382 0.331,-0.4C0.325,-0.418 0.319,-0.436 0.313,-0.456C0.306,-0.474 0.298,-0.5 0.288,-0.531C0.277,-0.498 0.269,-0.472 0.263,-0.453C0.256,-0.433 0.25,-0.414 0.244,-0.395C0.238,-0.376 0.231,-0.356 0.224,-0.333C0.216,-0.31 0.205,-0.28 0.191,-0.241Z" style="fill:rgb(231,145,53);fill-rule:nonzero;"/>
                    </g>
                    <g transform="matrix(125,0,0,125,5468.34,1681.9)">
                        <path d="M0.013,-0.086L0.08,-0.162C0.105,-0.142 0.134,-0.126 0.167,-0.114C0.199,-0.101 0.233,-0.095 0.27,-0.095C0.311,-0.095 0.344,-0.104 0.368,-0.121C0.391,-0.138 0.403,-0.161 0.403,-0.188C0.403,-0.241 0.374,-0.271 0.315,-0.279C0.3,-0.28 0.286,-0.282 0.273,-0.284C0.26,-0.286 0.244,-0.288 0.227,-0.291C0.168,-0.299 0.124,-0.32 0.094,-0.355C0.064,-0.39 0.049,-0.431 0.049,-0.479C0.049,-0.536 0.068,-0.583 0.106,-0.62C0.144,-0.657 0.198,-0.675 0.267,-0.675C0.308,-0.675 0.347,-0.668 0.384,-0.655C0.421,-0.642 0.454,-0.625 0.485,-0.605L0.428,-0.521C0.403,-0.537 0.377,-0.55 0.349,-0.559C0.321,-0.568 0.292,-0.573 0.263,-0.573C0.231,-0.573 0.204,-0.565 0.183,-0.549C0.162,-0.533 0.151,-0.509 0.151,-0.477C0.151,-0.458 0.158,-0.441 0.173,-0.424C0.188,-0.407 0.212,-0.396 0.246,-0.391C0.255,-0.39 0.265,-0.389 0.278,-0.387C0.29,-0.385 0.304,-0.383 0.321,-0.381C0.383,-0.374 0.429,-0.351 0.459,-0.314C0.489,-0.276 0.504,-0.234 0.504,-0.188C0.504,-0.127 0.483,-0.079 0.44,-0.045C0.397,-0.011 0.34,0.006 0.269,0.006C0.168,0.006 0.083,-0.025 0.013,-0.086Z" style="fill:rgb(231,145,53);fill-rule:nonzero;"/>
                    </g>
                    <g transform="matrix(125,0,0,125,5535.84,1681.9)">
                        <rect x="0.066" y="-0.095" width="0.096" height="0.095" style="fill:rgb(231,145,53);fill-rule:nonzero;"/>
                    </g>
                    <g transform="matrix(125,0,0,125,5564.09,1681.9)">
                        <path d="M0.173,-0.579L0.173,-0.375L0.327,-0.375C0.364,-0.375 0.393,-0.386 0.412,-0.407C0.431,-0.428 0.44,-0.453 0.44,-0.482C0.44,-0.516 0.429,-0.541 0.407,-0.558C0.387,-0.572 0.362,-0.579 0.332,-0.579L0.173,-0.579ZM0.072,-0L0.072,-0.669L0.333,-0.669C0.39,-0.669 0.436,-0.654 0.47,-0.625C0.488,-0.608 0.503,-0.588 0.517,-0.564C0.53,-0.539 0.536,-0.512 0.536,-0.482C0.536,-0.439 0.525,-0.4 0.502,-0.367C0.479,-0.334 0.447,-0.31 0.407,-0.296L0.562,-0L0.441,-0L0.303,-0.285L0.173,-0.285L0.173,-0L0.072,-0Z" style="fill:rgb(231,145,53);fill-rule:nonzero;"/>
                    </g>
                    <g transform="matrix(125,0,0,125,5635.84,1681.9)">
                        <rect x="0.072" y="-0.669" width="0.101" height="0.669" style="fill:rgb(231,145,53);fill-rule:nonzero;"/>
                    </g>
                    <g transform="matrix(125,0,0,125,5666.21,1681.9)">
                        <path d="M0.185,-0L0.185,-0.579L0.002,-0.579L0.002,-0.669L0.471,-0.669L0.471,-0.579L0.287,-0.579L0.287,-0L0.185,-0Z" style="fill:rgb(231,145,53);fill-rule:nonzero;"/>
                    </g>
                    <g transform="matrix(125,0,0,125,5725.09,1681.9)">
                        <path d="M0.013,-0.086L0.08,-0.162C0.105,-0.142 0.134,-0.126 0.167,-0.114C0.199,-0.101 0.233,-0.095 0.27,-0.095C0.311,-0.095 0.344,-0.104 0.368,-0.121C0.391,-0.138 0.403,-0.161 0.403,-0.188C0.403,-0.241 0.374,-0.271 0.315,-0.279C0.3,-0.28 0.286,-0.282 0.273,-0.284C0.26,-0.286 0.244,-0.288 0.227,-0.291C0.168,-0.299 0.124,-0.32 0.094,-0.355C0.064,-0.39 0.049,-0.431 0.049,-0.479C0.049,-0.536 0.068,-0.583 0.106,-0.62C0.144,-0.657 0.198,-0.675 0.267,-0.675C0.308,-0.675 0.347,-0.668 0.384,-0.655C0.421,-0.642 0.454,-0.625 0.485,-0.605L0.428,-0.521C0.403,-0.537 0.377,-0.55 0.349,-0.559C0.321,-0.568 0.292,-0.573 0.263,-0.573C0.231,-0.573 0.204,-0.565 0.183,-0.549C0.162,-0.533 0.151,-0.509 0.151,-0.477C0.151,-0.458 0.158,-0.441 0.173,-0.424C0.188,-0.407 0.212,-0.396 0.246,-0.391C0.255,-0.39 0.265,-0.389 0.278,-0.387C0.29,-0.385 0.304,-0.383 0.321,-0.381C0.383,-0.374 0.429,-0.351 0.459,-0.314C0.489,-0.276 0.504,-0.234 0.504,-0.188C0.504,-0.127 0.483,-0.079 0.44,-0.045C0.397,-0.011 0.34,0.006 0.269,0.006C0.168,0.006 0.083,-0.025 0.013,-0.086Z" style="fill:rgb(231,145,53);fill-rule:nonzero;"/>
                    </g>
                    <g transform="matrix(125,0,0,125,5792.59,1681.9)">
                        <path d="M0.072,-0L0.072,-0.669L0.5,-0.669L0.5,-0.573L0.173,-0.573L0.173,-0.382L0.451,-0.382L0.451,-0.292L0.173,-0.292L0.173,-0.095L0.5,-0.095L0.5,-0L0.072,-0Z" style="fill:rgb(231,145,53);fill-rule:nonzero;"/>
                    </g>
                    <g transform="matrix(125,0,0,125,5857.96,1681.9)">
                        <path d="M0.416,-0.186L0.523,-0.186C0.51,-0.124 0.482,-0.077 0.439,-0.044C0.396,-0.011 0.345,0.006 0.288,0.006C0.235,0.006 0.191,-0.007 0.156,-0.032C0.12,-0.057 0.094,-0.085 0.078,-0.114C0.067,-0.133 0.059,-0.155 0.055,-0.179C0.051,-0.202 0.049,-0.254 0.049,-0.334C0.049,-0.415 0.051,-0.467 0.055,-0.49C0.059,-0.513 0.067,-0.535 0.078,-0.554C0.094,-0.583 0.12,-0.611 0.156,-0.637C0.191,-0.662 0.235,-0.675 0.288,-0.675C0.351,-0.675 0.404,-0.656 0.445,-0.617C0.486,-0.578 0.512,-0.531 0.523,-0.476L0.416,-0.476C0.408,-0.502 0.393,-0.525 0.37,-0.544C0.347,-0.563 0.32,-0.573 0.288,-0.573C0.264,-0.573 0.243,-0.568 0.226,-0.559C0.208,-0.549 0.194,-0.537 0.184,-0.524C0.171,-0.507 0.163,-0.489 0.158,-0.468C0.153,-0.447 0.151,-0.403 0.151,-0.334C0.151,-0.265 0.153,-0.221 0.158,-0.2C0.163,-0.179 0.171,-0.161 0.184,-0.144C0.194,-0.131 0.208,-0.119 0.226,-0.11C0.243,-0.1 0.264,-0.095 0.288,-0.095C0.345,-0.095 0.387,-0.125 0.416,-0.186Z" style="fill:rgb(231,145,53);fill-rule:nonzero;"/>
                    </g>
                    <g transform="matrix(125,0,0,125,5923.34,1681.9)">
                        <rect x="0.066" y="-0.095" width="0.096" height="0.095" style="fill:rgb(231,145,53);fill-rule:nonzero;"/>
                    </g>
                    <g transform="matrix(125,0,0,125,5951.59,1681.9)">
                        <path d="M0.416,-0.186L0.523,-0.186C0.51,-0.124 0.482,-0.077 0.439,-0.044C0.396,-0.011 0.345,0.006 0.288,0.006C0.235,0.006 0.191,-0.007 0.156,-0.032C0.12,-0.057 0.094,-0.085 0.078,-0.114C0.067,-0.133 0.059,-0.155 0.055,-0.179C0.051,-0.202 0.049,-0.254 0.049,-0.334C0.049,-0.415 0.051,-0.467 0.055,-0.49C0.059,-0.513 0.067,-0.535 0.078,-0.554C0.094,-0.583 0.12,-0.611 0.156,-0.637C0.191,-0.662 0.235,-0.675 0.288,-0.675C0.351,-0.675 0.404,-0.656 0.445,-0.617C0.486,-0.578 0.512,-0.531 0.523,-0.476L0.416,-0.476C0.408,-0.502 0.393,-0.525 0.37,-0.544C0.347,-0.563 0.32,-0.573 0.288,-0.573C0.264,-0.573 0.243,-0.568 0.226,-0.559C0.208,-0.549 0.194,-0.537 0.184,-0.524C0.171,-0.507 0.163,-0.489 0.158,-0.468C0.153,-0.447 0.151,-0.403 0.151,-0.334C0.151,-0.265 0.153,-0.221 0.158,-0.2C0.163,-0.179 0.171,-0.161 0.184,-0.144C0.194,-0.131 0.208,-0.119 0.226,-0.11C0.243,-0.1 0.264,-0.095 0.288,-0.095C0.345,-0.095 0.387,-0.125 0.416,-0.186Z" style="fill:rgb(231,145,53);fill-rule:nonzero;"/>
                    </g>
                    <g transform="matrix(125,0,0,125,6016.96,1681.9)">
                        <path d="M0.072,-0L0.072,-0.669L0.173,-0.669L0.173,-0.095L0.5,-0.095L0.5,-0L0.072,-0Z" style="fill:rgb(231,145,53);fill-rule:nonzero;"/>
                    </g>
                    <g transform="matrix(125,0,0,125,6082.34,1681.9)">
                        <path d="M0.059,-0.226L0.059,-0.669L0.161,-0.669L0.161,-0.237C0.161,-0.191 0.174,-0.156 0.2,-0.132C0.226,-0.107 0.258,-0.095 0.297,-0.095C0.336,-0.095 0.368,-0.107 0.395,-0.132C0.421,-0.156 0.434,-0.191 0.434,-0.237L0.434,-0.669L0.535,-0.669L0.535,-0.226C0.535,-0.156 0.512,-0.1 0.466,-0.058C0.419,-0.015 0.363,0.006 0.297,0.006C0.231,0.006 0.175,-0.015 0.129,-0.058C0.082,-0.1 0.059,-0.156 0.059,-0.226Z" style="fill:rgb(231,145,53);fill-rule:nonzero;"/>
                    </g>
                    <g transform="matrix(125,0,0,125,6156.46,1681.9)">
                        <path d="M0.072,-0L0.072,-0.669L0.331,-0.669C0.396,-0.669 0.446,-0.652 0.479,-0.619C0.512,-0.585 0.529,-0.542 0.529,-0.489C0.529,-0.462 0.522,-0.435 0.509,-0.41C0.496,-0.385 0.47,-0.363 0.431,-0.345L0.431,-0.343C0.468,-0.335 0.495,-0.316 0.513,-0.286C0.531,-0.255 0.54,-0.223 0.54,-0.189C0.54,-0.132 0.522,-0.086 0.485,-0.052C0.448,-0.017 0.404,-0 0.354,-0L0.072,-0ZM0.329,-0.296L0.173,-0.296L0.173,-0.095L0.329,-0.095C0.367,-0.095 0.395,-0.105 0.413,-0.126C0.43,-0.146 0.439,-0.169 0.439,-0.196C0.439,-0.222 0.43,-0.245 0.413,-0.266C0.395,-0.286 0.367,-0.296 0.329,-0.296ZM0.32,-0.579L0.173,-0.579L0.173,-0.387L0.32,-0.387C0.357,-0.387 0.384,-0.396 0.402,-0.415C0.419,-0.434 0.428,-0.456 0.428,-0.483C0.428,-0.508 0.419,-0.531 0.402,-0.55C0.384,-0.569 0.357,-0.579 0.32,-0.579Z" style="fill:rgb(231,145,53);fill-rule:nonzero;"/>
                    </g>
                </g>
            </g>
        </g>
    </g>
</svg>
